<svg xmlns="http://www.w3.org/2000/svg" version="1.1" viewBox="-5.0 -10.0 110.0 135.0">
 <g>
  <path d="m7.8125 39.062v43.75c0 5.1719 4.2031 9.375 9.375 9.375h65.625c5.1719 0 9.375-4.2031 9.375-9.375v-43.75zm58.332 22.656-16.145 16.145c-2.2305 2.2305-5.8438 2.2305-8.0742 0l-8.0742-8.0742c-2.2305-2.2305-2.2305-5.8438 0-8.0742 2.2305-2.2305 5.8438-2.2305 8.0742 0l4.0352 4.0352 12.109-12.109c2.2305-2.2305 5.8438-2.2305 8.0742 0s2.2305 5.8438 0 8.0742z"/>
  <path d="m82.812 17.188h-3.125v-4.6875c0-2.5898-2.0977-4.6875-4.6875-4.6875s-4.6875 2.0977-4.6875 4.6875v4.6875h-40.625v-4.6875c0-2.5898-2.0977-4.6875-4.6875-4.6875s-4.6875 2.0977-4.6875 4.6875v4.6875h-3.125c-5.1719 0-9.375 4.2031-9.375 9.375v6.25h84.375v-6.25c0-5.1719-4.2031-9.375-9.375-9.375z"/>
 </g>
<text x="0.0" y="117.5" font-size="5.0" font-weight="bold" font-family="Arbeit Regular, Helvetica, Arial-Unicode, Arial, Sans-serif" fill="#000000">Created by Glyphy</text><text x="0.0" y="122.5" font-size="5.0" font-weight="bold" font-family="Arbeit Regular, Helvetica, Arial-Unicode, Arial, Sans-serif" fill="#000000">from Noun Project</text></svg>