<svg width="81" height="82" viewBox="0 0 81 82" fill="none" xmlns="http://www.w3.org/2000/svg">
<path d="M79 19.75C77.6016 18.0352 75.5039 17.043 73.293 17.043H18.457L16.875 10.8321C15.3594 4.6837 9.8359 0.363101 3.5 0.375101C1.7734 0.375101 0.375 1.7735 0.375 3.5001C0.375 5.2267 1.7734 6.6251 3.5 6.6251C6.9648 6.61729 9.9922 8.9728 10.832 12.3321L12.957 20.6641L20.539 54.9141L20.5429 54.918C21.1992 58.3282 24.1913 60.793 27.6679 60.793H66.8359H66.832C70.2578 60.8125 73.2304 58.4297 73.957 55.0821L80.414 25.9141L80.4179 25.918C80.9062 23.7539 80.3867 21.4844 79 19.75ZM53.082 42.043H49.957V45.168C49.957 46.8907 48.5586 48.293 46.832 48.293C45.1093 48.293 43.707 46.8907 43.707 45.168V42.043H40.582C38.8593 42.043 37.457 40.6407 37.457 38.918C37.457 37.1914 38.8593 35.793 40.582 35.793H43.707V32.668C43.707 30.9414 45.1093 29.543 46.832 29.543C48.5586 29.543 49.957 30.9414 49.957 32.668V35.793H53.082C54.8086 35.793 56.207 37.1914 56.207 38.918C56.207 40.6407 54.8086 42.043 53.082 42.043ZM71.207 72.25C71.207 76.043 68.9258 79.4609 65.4218 80.9102C61.9179 82.3633 57.8866 81.5586 55.2028 78.879C52.5231 76.1993 51.7223 72.1642 53.1716 68.664C54.6208 65.1601 58.0427 62.8749 61.8318 62.8749C67.0115 62.8749 71.207 67.0742 71.207 72.25ZM42.0429 72.25C42.0429 76.043 39.7577 79.4609 36.2538 80.9102C32.7499 82.3633 28.7186 81.5586 26.0388 78.879C23.3552 76.1993 22.5544 72.1642 24.0036 68.664C25.4567 65.1601 28.8747 62.8749 32.6677 62.8749C37.8435 62.8749 42.0429 67.0742 42.0429 72.25Z" fill="black"/>
</svg>
